<?xml version="1.0" encoding="UTF-8" standalone="yes"?>
<svg xmlns="http://www.w3.org/2000/svg" width="196.63427734375" height="16.80078125" viewBox="0 0 196.63427734375 16.80078125" fill="#FFFFFF">
  <path d="M5.96 16.58L6.77 11.97L4.60 11.97L3.80 16.58L1.74 16.58L2.55 11.97L0 11.97L0 10.04L2.89 10.04L3.45 6.85L0.84 6.85L0.84 4.90L3.80 4.90L4.62 0.22L6.66 0.22L5.84 4.90L8.02 4.90L8.84 0.22L10.89 0.22L10.07 4.90L12.53 4.90L12.53 6.85L9.73 6.85L9.16 10.04L11.68 10.04L11.68 11.97L8.83 11.97L8.02 16.58L5.96 16.58ZM5.49 6.85L4.94 10.04L7.11 10.04L7.67 6.85L5.49 6.85ZM20.80 16.58L14.44 16.58L14.44 0.22L20.17 0.22Q23.15 0.22 24.68 1.36Q26.22 2.50 26.22 4.71L26.22 4.71Q26.22 5.91 25.61 6.82Q24.99 7.74 23.89 8.16L23.89 8.16Q25.15 8.48 25.87 9.43Q26.59 10.39 26.59 11.77L26.59 11.77Q26.59 14.13 25.09 15.34Q23.58 16.55 20.80 16.58L20.80 16.58ZM20.90 9.46L17.81 9.46L17.81 13.87L20.70 13.87Q21.89 13.87 22.56 13.30Q23.22 12.74 23.22 11.74L23.22 11.74Q23.22 9.49 20.90 9.46L20.90 9.46ZM17.81 2.95L17.81 7.08L20.30 7.08Q22.85 7.03 22.85 5.04L22.85 5.04Q22.85 3.93 22.21 3.44Q21.56 2.95 20.17 2.95L20.17 2.95L17.81 2.95ZM38.24 16.58L35.17 10.59L32.49 10.59L32.49 16.58L29.12 16.58L29.12 0.22L35.20 0.22Q38.09 0.22 39.67 1.52Q41.24 2.81 41.24 5.17L41.24 5.17Q41.24 6.84 40.51 7.96Q39.79 9.07 38.32 9.74L38.32 9.74L41.86 16.42L41.86 16.58L38.24 16.58ZM32.49 2.95L32.49 7.86L35.21 7.86Q36.48 7.86 37.17 7.22Q37.87 6.57 37.87 5.44L37.87 5.44Q37.87 4.28 37.21 3.62Q36.56 2.95 35.20 2.95L35.20 2.95L32.49 2.95ZM57.23 8.04L57.23 8.77Q57.23 11.19 56.38 13.00Q55.52 14.82 53.93 15.81Q52.35 16.80 50.29 16.80L50.29 16.80Q48.26 16.80 46.66 15.82Q45.07 14.85 44.19 13.03Q43.32 11.22 43.30 8.86L43.30 8.86L43.30 8.05Q43.30 5.64 44.18 3.80Q45.05 1.97 46.63 0.98Q48.22 0 50.27 0Q52.31 0 53.90 0.98Q55.49 1.97 56.36 3.80Q57.23 5.64 57.23 8.04L57.23 8.04ZM53.82 8.83L53.82 8.03Q53.82 5.46 52.90 4.12Q51.97 2.79 50.27 2.79L50.27 2.79Q48.57 2.79 47.65 4.10Q46.73 5.42 46.72 7.97L46.72 7.97L46.72 8.77Q46.72 11.28 47.64 12.66Q48.56 14.04 50.29 14.04L50.29 14.04Q51.99 14.04 52.90 12.71Q53.81 11.38 53.82 8.83L53.82 8.83ZM77.04 0.22L77.04 2.95L72.03 2.95L72.03 16.58L68.66 16.58L68.66 2.95L63.72 2.95L63.72 0.22L77.04 0.22ZM88.08 16.58L85.01 10.59L82.33 10.59L82.33 16.58L78.96 16.58L78.96 0.22L85.04 0.22Q87.93 0.22 89.51 1.52Q91.08 2.81 91.08 5.17L91.08 5.17Q91.08 6.84 90.35 7.96Q89.63 9.07 88.16 9.74L88.16 9.74L91.70 16.42L91.70 16.58L88.08 16.58ZM82.33 2.95L82.33 7.86L85.05 7.86Q86.32 7.86 87.01 7.22Q87.71 6.57 87.71 5.44L87.71 5.44Q87.71 4.28 87.05 3.62Q86.40 2.95 85.04 2.95L85.04 2.95L82.33 2.95ZM104.01 16.58L102.87 13.21L96.96 13.21L95.84 16.58L92.26 16.58L98.35 0.22L101.47 0.22L107.59 16.58L104.01 16.58ZM99.91 4.36L97.87 10.48L101.96 10.48L99.91 4.36ZM122.41 0.22L122.41 16.58L119.04 16.58L112.48 5.82L112.48 16.58L109.12 16.58L109.12 0.22L112.48 0.22L119.05 11.01L119.05 0.22L122.41 0.22ZM133.83 12.29L133.83 12.29Q133.83 11.33 133.16 10.82Q132.49 10.31 130.73 9.74Q128.98 9.18 127.96 8.63L127.96 8.63Q125.17 7.12 125.17 4.57L125.17 4.57Q125.17 3.25 125.92 2.21Q126.67 1.17 128.07 0.58Q129.46 0 131.21 0L131.21 0Q132.96 0 134.33 0.63Q135.70 1.27 136.46 2.43Q137.21 3.58 137.21 5.05L137.21 5.05L133.84 5.05Q133.84 3.93 133.14 3.31Q132.43 2.68 131.15 2.68L131.15 2.68Q129.91 2.68 129.23 3.21Q128.54 3.73 128.54 4.58L128.54 4.58Q128.54 5.38 129.35 5.92Q130.15 6.46 131.71 6.93L131.71 6.93Q134.59 7.79 135.90 9.07Q137.21 10.35 137.21 12.26L137.21 12.26Q137.21 14.39 135.61 15.59Q134.00 16.80 131.28 16.80L131.28 16.80Q129.40 16.80 127.85 16.11Q126.30 15.42 125.48 14.22Q124.67 13.02 124.67 11.43L124.67 11.43L128.05 11.43Q128.05 14.14 131.28 14.14L131.28 14.14Q132.49 14.14 133.16 13.65Q133.83 13.16 133.83 12.29ZM145.82 10.81L142.86 10.81L142.86 16.58L139.49 16.58L139.49 0.22L145.87 0.22Q147.71 0.22 149.11 0.90Q150.51 1.57 151.26 2.81Q152.02 4.05 152.02 5.64L152.02 5.64Q152.02 8.04 150.37 9.43Q148.73 10.81 145.82 10.81L145.82 10.81ZM142.86 2.95L142.86 8.09L145.87 8.09Q147.21 8.09 147.91 7.46Q148.61 6.83 148.61 5.66L148.61 5.66Q148.61 4.46 147.91 3.72Q147.20 2.98 145.95 2.95L145.95 2.95L142.86 2.95ZM167.76 8.04L167.76 8.77Q167.76 11.19 166.91 13.00Q166.05 14.82 164.46 15.81Q162.88 16.80 160.82 16.80L160.82 16.80Q158.79 16.80 157.19 15.82Q155.60 14.85 154.72 13.03Q153.85 11.22 153.83 8.86L153.83 8.86L153.83 8.05Q153.83 5.64 154.71 3.80Q155.58 1.97 157.16 0.98Q158.75 0 160.80 0Q162.84 0 164.43 0.98Q166.02 1.97 166.89 3.80Q167.76 5.64 167.76 8.04L167.76 8.04ZM164.35 8.83L164.35 8.03Q164.35 5.46 163.43 4.12Q162.50 2.79 160.80 2.79L160.80 2.79Q159.10 2.79 158.18 4.10Q157.26 5.42 157.25 7.97L157.25 7.97L157.25 8.77Q157.25 11.28 158.17 12.66Q159.09 14.04 160.82 14.04L160.82 14.04Q162.52 14.04 163.43 12.71Q164.34 11.38 164.35 8.83L164.35 8.83ZM179.33 16.58L176.26 10.59L173.58 10.59L173.58 16.58L170.21 16.58L170.21 0.22L176.28 0.22Q179.18 0.22 180.75 1.52Q182.33 2.81 182.33 5.17L182.33 5.17Q182.33 6.84 181.60 7.96Q180.88 9.07 179.41 9.74L179.41 9.74L182.94 16.42L182.94 16.58L179.33 16.58ZM173.58 2.95L173.58 7.86L176.30 7.86Q177.56 7.86 178.26 7.22Q178.96 6.57 178.96 5.44L178.96 5.44Q178.96 4.28 178.30 3.62Q177.64 2.95 176.28 2.95L176.28 2.95L173.58 2.95ZM196.63 0.22L196.63 2.95L191.63 2.95L191.63 16.58L188.26 16.58L188.26 2.95L183.31 2.95L183.31 0.22L196.63 0.22Z"/>
</svg>